<svg width="9" height="9" viewBox="0 0 9 9" fill="none" xmlns="http://www.w3.org/2000/svg">
<path d="M3.69888 7.78013C3.65779 7.74011 3.48213 7.58895 3.33763 7.4482C2.42883 6.62293 0.941333 4.46995 0.487292 3.34313C0.414333 3.172 0.259917 2.73932 0.25 2.50816C0.25 2.28665 0.301 2.0755 0.404417 1.874C0.548917 1.62283 0.776292 1.42134 1.04475 1.31093C1.23104 1.23985 1.7885 1.12945 1.79842 1.12945C2.40829 1.01904 3.39925 0.958313 4.49433 0.958313C5.53771 0.958313 6.48829 1.01904 7.10737 1.10944C7.11729 1.11978 7.81004 1.23019 8.04733 1.35095C8.48083 1.57245 8.75 2.00512 8.75 2.46813V2.50816C8.73938 2.80971 8.47021 3.44385 8.46029 3.44385C8.00554 4.50997 6.591 6.61322 5.65104 7.45855C5.65104 7.45855 5.4095 7.69662 5.25863 7.8001C5.04187 7.9616 4.77342 8.04165 4.50496 8.04165C4.20533 8.04165 3.92625 7.95126 3.69888 7.78013Z" fill="white"/>
</svg>
