<svg width="7" height="9" viewBox="0 0 7 9" fill="none" xmlns="http://www.w3.org/2000/svg">
<path d="M0.605762 3.79313C0.641075 3.75688 0.774413 3.60188 0.898625 3.47438C1.62682 2.6725 3.5265 1.36 4.52075 0.959375C4.67175 0.895 5.0535 0.75875 5.2575 0.75C5.45294 0.75 5.63925 0.795 5.81706 0.88625C6.03869 1.01375 6.21644 1.21438 6.31387 1.45125C6.37656 1.61563 6.474 2.1075 6.474 2.11625C6.57144 2.65437 6.625 3.52875 6.625 4.495C6.625 5.41562 6.57144 6.25437 6.49169 6.80062C6.4825 6.80937 6.38512 7.42062 6.27856 7.63C6.08312 8.0125 5.70138 8.25 5.29281 8.25H5.2575C4.99144 8.24062 4.43188 8.00312 4.43188 7.99437C3.49119 7.59312 1.63535 6.345 0.889494 5.51562C0.889494 5.51562 0.679431 5.3025 0.5881 5.16937C0.445631 4.97813 0.375 4.74125 0.375 4.50437C0.375 4.24 0.454762 3.99375 0.605762 3.79313Z" fill="#99E39E"/>
</svg>
