<svg width="55" height="55" viewBox="0 0 55 55" fill="none" xmlns="http://www.w3.org/2000/svg">
<path d="M42.4869 9.44163L29.8827 4.7208C28.5764 4.23955 26.4452 4.23955 25.1389 4.7208L12.5348 9.44163C10.1056 10.3583 8.13477 13.2 8.13477 15.7895V34.352C8.13477 36.2083 9.34935 38.6604 10.8389 39.7604L23.4431 49.1791C25.666 50.852 29.3098 50.852 31.5327 49.1791L44.1368 39.7604C45.6264 38.6375 46.841 36.2083 46.841 34.352V15.7895C46.8639 13.2 44.8931 10.3583 42.4869 9.44163ZM33.641 32.0145C33.2973 32.3583 32.8618 32.5187 32.4264 32.5187C31.991 32.5187 31.5556 32.3583 31.2118 32.0145L27.5681 28.3708L23.8098 32.1291C23.466 32.4729 23.0306 32.6333 22.5952 32.6333C22.1598 32.6333 21.7243 32.4729 21.3806 32.1291C20.716 31.4646 20.716 30.3645 21.3806 29.7L25.1389 25.9416L21.4723 22.275C20.8077 21.6104 20.8077 20.5104 21.4723 19.8458C22.1368 19.1812 23.2368 19.1812 23.9014 19.8458L27.5452 23.4895L31.0973 19.9375C31.7618 19.2729 32.8618 19.2729 33.5264 19.9375C34.191 20.602 34.191 21.702 33.5264 22.3666L29.9743 25.9187L33.6181 29.5625C34.3056 30.25 34.3056 31.327 33.641 32.0145Z" fill="#FE3745"/>
</svg>
