<svg width="55" height="55" viewBox="0 0 55 55" fill="none" xmlns="http://www.w3.org/2000/svg">
<path d="M42.4868 9.44163L29.8827 4.7208C28.5764 4.23955 26.4452 4.23955 25.1389 4.7208L12.5348 9.44163C10.1056 10.3583 8.13477 13.2 8.13477 15.7895V34.352C8.13477 36.2083 9.34935 38.6604 10.8389 39.7604L23.4431 49.1791C25.666 50.852 29.3098 50.852 31.5327 49.1791L44.1368 39.7604C45.6264 38.6375 46.841 36.2083 46.841 34.352V15.7895C46.8639 13.2 44.8931 10.3583 42.4868 9.44163ZM35.4743 22.275L25.6202 32.1291C25.2764 32.4729 24.841 32.6333 24.4056 32.6333C23.9702 32.6333 23.5348 32.4729 23.191 32.1291L19.5243 28.4166C18.8598 27.752 18.8598 26.6521 19.5243 25.9875C20.1889 25.3229 21.2889 25.3229 21.9535 25.9875L24.4285 28.4625L33.0681 19.8229C33.7327 19.1583 34.8327 19.1583 35.4973 19.8229C36.1618 20.4875 36.1618 21.6104 35.4743 22.275Z" fill="#99E39E"/>
</svg>
